<?xml version="1.0" encoding="UTF-8"?>
<svg width="32px" height="32px" viewBox="0 0 32 32" version="1.1" xmlns="http://www.w3.org/2000/svg" xmlns:xlink="http://www.w3.org/1999/xlink">
    <g id="Page-2" stroke="none" stroke-width="1" fill="none" fill-rule="evenodd">
        <g id="github" fill="#FFFFFE">
            <path d="M0,16.2504911 C0,23.3195847 4.58405721,29.3160855 10.9420179,31.4318042 C11.7425335,31.5791384 12.0342552,31.0850778 12.0342552,30.6607554 C12.0342552,30.2806332 12.020504,29.2748319 12.0126462,27.9399843 C7.56217195,28.9064965 6.62316216,25.7947988 6.62316216,25.7947988 C5.89533135,23.946246 4.84631204,23.4541499 4.84631204,23.4541499 C3.3935971,22.4620998 4.95632156,22.4817444 4.95632156,22.4817444 C6.56226404,22.5947006 7.40697996,24.1309049 7.40697996,24.1309049 C8.83415697,26.5756699 11.1522146,25.8694481 12.063722,25.4598591 C12.2090917,24.4265554 12.6226097,23.7213159 13.0793456,23.3215492 C9.52662758,22.9178535 5.7912152,21.544699 5.7912152,15.413633 C5.7912152,13.667232 6.41492986,12.2380905 7.43841125,11.1203152 C7.27339697,10.7156374 6.72433162,9.08808588 7.5955677,6.88593112 C7.5955677,6.88593112 8.93827312,6.45571534 11.9949661,8.52625157 C13.27088,8.1706851 14.6401056,7.9938841 16.0004911,7.9870085 C17.3598944,7.9938841 18.7281378,8.1706851 20.0060161,8.52625157 C23.0607447,6.45571534 24.4014856,6.88593112 24.4014856,6.88593112 C25.2746861,9.08808588 24.7256208,10.7156374 24.5615888,11.1203152 C25.5870346,12.2380905 26.2058381,13.667232 26.2058381,15.413633 C26.2058381,21.5604147 22.4645324,22.9129424 18.9010099,23.3087802 C19.4746309,23.8028408 19.9863716,24.7791752 19.9863716,26.2711793 C19.9863716,28.4104715 19.966727,30.1362457 19.966727,30.6607554 C19.966727,31.0890067 20.255502,31.5869962 21.0668222,31.430822 C27.4198717,29.3101921 32,23.3176202 32,16.2504911 C32,7.41338746 24.8356303,0.25 15.9985267,0.25 C7.16436969,0.25 0,7.41338746 0,16.2504911 Z" id="octocat"></path>
        </g>
    </g>
</svg>