
<svg id="serverlessdays_virtual" width="767px" height="337px" viewBox="0 0 767 337" version="1.1" xmlns="http://www.w3.org/2000/svg" xmlns:xlink="http://www.w3.org/1999/xlink">
    <defs>
        <filter x="-3.8%" y="-34.8%" width="107.7%" height="169.7%" filterUnits="objectBoundingBox" id="filter-1">
            <feOffset dx="4" dy="4" in="SourceAlpha" result="shadowOffsetOuter1"></feOffset>
            <feGaussianBlur stdDeviation="4" in="shadowOffsetOuter1" result="shadowBlurOuter1"></feGaussianBlur>
            <feColorMatrix values="0 0 0 0 0   0 0 0 0 0   0 0 0 0 0  0 0 0 0.5 0" type="matrix" in="shadowBlurOuter1" result="shadowMatrixOuter1"></feColorMatrix>
            <feMerge>
                <feMergeNode in="shadowMatrixOuter1"></feMergeNode>
                <feMergeNode in="SourceGraphic"></feMergeNode>
            </feMerge>
        </filter>
        <text id="text-2" font-family="UbuntuMono-BoldItalic, Ubuntu Mono" font-size="72" font-style="italic" font-weight="bold" fill="#FFFFFF">
            <tspan x="332" y="126">virtual</tspan>
        </text>
        <filter x="-4.0%" y="-13.9%" width="111.1%" height="138.9%" filterUnits="objectBoundingBox" id="filter-3">
            <feOffset dx="4" dy="4" in="SourceAlpha" result="shadowOffsetOuter1"></feOffset>
            <feGaussianBlur stdDeviation="4" in="shadowOffsetOuter1" result="shadowBlurOuter1"></feGaussianBlur>
            <feColorMatrix values="0 0 0 0 0   0 0 0 0 0   0 0 0 0 0  0 0 0 0.5 0" type="matrix" in="shadowBlurOuter1"></feColorMatrix>
        </filter>
    </defs>
    <g id="logo-options-copy" stroke="none" stroke-width="1" fill="none" fill-rule="evenodd">
        <g id="Desktop-HD" transform="translate(-312.000000, -492.000000)">
            <g id="Group-4" transform="translate(314.000000, 494.000000)">
                <g id="Monitor">
                    <path d="M24.8954468,16.8598175 C24.8954468,16.8598175 6.91312834,21.2803854 5.70812762,24.8720969 C4.5031269,28.4638083 1.35158656,88.8782365 1.81504837,103.889748 C2.27851019,118.90126 -1.05841488,153.160662 3.94697272,157.58123 C8.95236033,161.909702 35.925838,178.486832 35.925838,178.486832 C35.925838,178.486832 15.7189028,185.76235 13.7723632,195.708628 C10.4354381,212.746233 40.1896867,250.044775 96.3612587,250.044775 C159.670143,250.044775 191.185546,236.875167 197.581319,225.639557 C203.977092,214.403946 203.977092,214.403946 203.977092,214.403946 C203.977092,214.403946 270.900978,201.050148 275.999058,195.708628 C281.097138,190.275013 275.535597,160.80456 275.535597,160.80456 L264.597898,58.6710224 C264.299737,52.2535243 263.48399,46.0447753 262.150656,40.0447753 C260.150656,31.0447753 173.150656,0.0447752885 159.150656,0.0447752885 C149.817323,0.0447752885 118.722261,3.37810862 65.8654713,10.0447753 L24.8954468,16.8598175 Z" id="Path" fill="#E8E7CA" fill-rule="nonzero"></path>
                    <path d="M117.150656,71.1455459 C129.371273,56.904882 243.800689,49.0447753 243.800689,49.0447753 L258.150656,175.17637 C252.132928,180.909624 128.908371,205.044775 128.908371,205.044775 C121.501937,195.797591 117.150656,71.1455459 117.150656,71.1455459 Z" id="Path" fill="#7A7A7A" fill-rule="nonzero"></path>
                    <path d="M261.965105,194.77896 L252.147265,197.008626 C251.289396,197.173787 250.431526,196.760885 250.14557,196.017663 L249.192382,193.044775 C249.001744,192.301553 249.478338,191.558331 250.336208,191.310591 L260.154047,189.080924 C261.011917,188.915764 261.869786,189.328665 262.155743,190.071887 L263.108931,193.044775 C263.299569,193.787997 262.822974,194.6138 261.965105,194.77896 Z" id="Path" fill="#E51E25" fill-rule="nonzero"></path>
                    <path d="M107.824288,219.009502 C106.989213,215.391513 106.432497,211.680754 105.968567,207.969996 C104.94792,200.548479 104.205631,193.126962 103.648915,185.612677 C102.442696,170.676874 101.700408,155.648303 101.050905,140.7125 L100.123044,118.169643 C99.7519001,110.655357 99.3807558,103.141072 98.9168254,95.6267859 C98.4528951,88.1125002 97.8961787,80.5982144 97.5250344,73.1766977 C97.3394622,69.4659393 97.2466762,65.662412 97.5250344,61.9516536 C97.8033926,58.2408952 98.8240394,54.5301368 101.143691,51.5615301 C99.9374722,52.9530645 98.9168254,54.6229058 98.1745369,56.385516 C97.4322483,58.1481263 97.061104,60.0035054 96.7827458,61.8588846 C96.2260294,65.662412 96.2260294,69.3731704 96.2260294,73.1766977 C96.2260294,80.6909834 96.5043876,88.2052691 96.7827458,95.7195548 L98.360109,140.7125 C99.0096115,155.741072 99.9374722,170.769643 101.514835,185.705445 C102.34991,193.219731 103.277771,200.641248 104.669562,208.062765 C105.41185,211.773523 106.154139,215.484281 107.174786,219.102271 C107.638716,220.95765 108.195432,222.72026 108.937721,224.482871 C109.68001,226.245481 110.422298,228.008091 111.628517,229.399625 C110.515084,227.822553 109.865582,226.059943 109.308865,224.297333 C108.752149,222.72026 108.288218,220.864881 107.824288,219.009502 Z" id="Path" fill="#010101" fill-rule="nonzero"></path>
                    <path d="M258.972796,188.488514 L253.220059,189.972818 C252.106626,190.251124 251.08598,190.993276 250.529263,192.013735 C249.972547,193.034193 249.786975,194.24019 250.065333,195.353417 C250.622049,197.579872 252.756129,198.878638 254.982995,198.600331 C255.168567,198.600331 255.354139,198.507562 255.539711,198.507562 L261.292447,197.023259 L261.292447,197.023259 C263.704885,196.373876 265.096676,193.961883 264.447174,191.54989 C263.797671,189.230666 261.385233,187.839132 258.972796,188.488514 Z M260.550159,194.518497 L254.797422,196.0028 C253.869562,196.281107 252.848915,195.724493 252.570557,194.704035 C252.477771,194.24019 252.477771,193.776345 252.756129,193.3125 C253.034487,192.848655 253.405631,192.570348 253.869562,192.47758 L259.622298,190.993276 C259.715084,190.993276 259.80787,190.993276 259.80787,190.993276 C260.179014,190.900507 260.642945,190.993276 260.921303,191.178814 C261.385233,191.457121 261.663592,191.828197 261.756378,192.292042 C262.127522,193.3125 261.570806,194.24019 260.550159,194.518497 Z" id="Shape" fill="#010101" fill-rule="nonzero"></path>
                    <polygon id="Path" fill="#010101" fill-rule="nonzero" points="36.7501588 79.1139111 41.111104 76.7019181 40.4616015 75.4959217 35.4511538 78.3717594 35.4511538 136.352359 40.3688155 141.083576 41.2966762 140.155886 36.7501588 135.795745"></polygon>
                    <polygon id="Path" fill="#010101" fill-rule="nonzero" points="21.8116015 76.5163802 26.2653329 74.0116183 25.6158304 72.8983908 20.5125966 75.6814596 20.5125966 133.754828 25.4302583 138.393276 26.358119 137.465587 21.8116015 133.198214"></polygon>
                    <path d="M127.150656,96.0447753 C127.150656,96.0447753 131.247649,183.513015 132.923692,189.529349 C134.785962,196.193596 142.328154,198.044775 149.870346,198.044775 C164.023595,198.044775 223.150656,183.327897 223.150656,183.327897 C223.150656,183.327897 160.112829,197.026626 144.935331,183.420456 C134.320394,173.794322 127.150656,96.0447753 127.150656,96.0447753 Z" id="Path" fill="#FFFFFF" fill-rule="nonzero" opacity="0.3"></path>
                    <path d="M71.1506563,44.0447753 C62.1506563,57.0447753 65.1506563,203.044775 71.1506563,210.044775 C77.1506563,217.044775 94.1506563,222.044775 111.150656,229.044775 C128.150656,236.044775 269.270319,198.759488 274.150656,197.044775 C279.030993,195.330062 276.150656,178.044775 276.150656,167.044775 C276.150656,156.044775 264.150656,47.0447753 262.150656,40.0447753 C260.150656,33.0447753 239.150656,27.0447753 227.150656,20.0447753 C215.150656,13.0447753 80.1506563,31.0447753 71.1506563,44.0447753 Z" id="Path-2" stroke="#000000" stroke-width="3"></path>
                    <path d="M33.1506563,179.044775 C19.1506563,186.378109 12.8173229,195.044775 14.1506563,205.044775 C16.1506563,220.044775 35.1506563,239.044775 65.1506563,247.044775 C95.1506563,255.044775 120.531409,255.3646 156.150656,247.044775 C179.896821,241.498226 195.230155,230.831559 202.150656,215.044775" id="Path-5" stroke="#000000" stroke-width="3"></path>
                    <path d="M53.1506563,189.044775 C49.1506563,187.044775 47.1506563,192.378109 47.1506563,205.044775 C47.1506563,216.044775 61.1506563,222.044775 70.1506563,225.044775 C78.162644,227.715438 91.7361326,233.579555 111.150656,229.044775" id="Path-5" stroke="#000000" stroke-width="3"></path>
                    <path d="M216.150656,19.0447753 C188.817323,7.04477529 169.817323,0.711441955 159.150656,0.0447752885 C143.150656,-0.955224712 13.1506563,15.0447753 6.15065627,23.0447753 C-0.849343727,31.0447753 -0.849343727,149.044775 1.15065627,156.044775 C2.48398961,160.711442 25.1506563,174.711442 69.1506563,198.044775" id="Path-4" stroke="#000000" stroke-width="3"></path>
                    <path d="M117.150656,71.0447753 C117.150656,84.0447753 123.150656,208.044775 129.150656,205.044775 C135.150656,202.044775 257.150656,183.044775 258.150656,175.044775 C259.150656,167.044775 243.150656,53.0447753 243.150656,50.0447753 C243.150656,47.0447753 117.150656,58.0447753 117.150656,71.0447753 Z" id="Path-3" stroke="#000000" stroke-width="3"></path>
                </g>
                <g id="keyboard" transform="translate(194.000000, 175.000000)">
                    <path d="M0,102.830126 L126.126127,0.0355691887 L170.14627,36.6144116 C170.14627,36.6144116 183.432028,45.2473744 182.98917,52.1893444 C182.457739,59.1313145 77.6773968,159.87888 68.9087967,158.009888 C60.1401966,156.140896 18.4229174,119.473054 18.4229174,119.473054 L0,102.830126 Z" id="Path" fill="#E8E7CA" fill-rule="nonzero"></path>
                    <path d="M7.2629432,96.632607 L1,104.147929 C42.7529547,140.889502 65.2995502,158.84277 68.6397865,158.007735 C70.6265963,157.511046 88.4768933,145.448992 114.985566,120.431126 C124.091341,111.837446 156.48563,80.6278867 177.614998,57.8034446 C182.151919,52.9025561 183.822037,49.979931 182.625353,49.0355692 C114.150507,115.003393 78.6604956,148.822341 76.1553184,150.492413 C72.3975525,152.99752 67.6457204,151.744967 66.1346093,151.744967 C62.3768433,151.744967 11.0207091,110.410697 8.51553184,106.653036 C6.84541365,104.147929 6.4278841,100.807786 7.2629432,96.632607 Z" id="Path-8" fill="#AFAFAF"></path>
                    <path d="M0,104.130152 C0,106.63738 60.1643836,158.035569 68.9383562,158.035569 C77.7123288,158.035569 183,59.0000344 183,50.2247338 C183,41.4494333 131.609589,2.58738796 126.59589,0.0801592346 C121.582192,-2.42706949 0,101.622923 0,104.130152 Z" id="Path-6" stroke="#000000" stroke-width="2"></path>
                    <path d="M78.2962963,69.0355692 L72,76.4755692 L99.7037037,100.035569 L106,96.3155692 C102.641975,96.3155692 100.54321,96.3155692 99.7037037,96.3155692 C98.8641975,96.3155692 92.9876543,89.7022359 82.0740741,76.4755692 L78.2962963,69.0355692 Z" id="Path-8" fill="#AFAFAF"></path>
                    <path d="M27.2068966,94.0355692 L21,101.635569 L50.7931034,132.035569 L57,125.702236 C52.0344828,124.857791 49.137931,124.435569 48.3103448,124.435569 C47.4827586,124.435569 41.2758621,117.257791 29.6896552,102.902236 L27.2068966,94.0355692 Z" id="Path-8" fill="#AFAFAF"></path>
                    <path d="M66.5,56.0355692 L60,63.8355692 C65.2,67.3022359 67.3666667,69.0355692 66.5,69.0355692 C65.6333333,69.0355692 67.8,67.3022359 73,63.8355692 C70.4,64.7022359 68.6666667,64.7022359 67.8,63.8355692 C66.9333333,62.9689025 66.5,60.3689025 66.5,56.0355692 Z" id="Path-8" fill="#AFAFAF"></path>
                    <polygon id="Path-7" stroke="#000000" fill-rule="nonzero" points="53.1153846 74.0355692 20 100.793305 26.3333333 107.035569 58 79.1124923"></polygon>
                    <polygon id="Path-7" stroke="#000000" fill-rule="nonzero" points="57.6666667 79.0355692 26 106.842347 32.3333333 113.035569 64 85.3318655"></polygon>
                    <polygon id="Path-7" stroke="#000000" fill-rule="nonzero" points="63.6666667 85.0355692 32 113.887885 38.3333333 120.035569 70 92.5355692"></polygon>
                    <polygon id="Path-7" stroke="#000000" fill-rule="nonzero" points="72.1153846 92.0355692 39 118.793305 45.3333333 125.035569 77 97.1124923"></polygon>
                    <path d="M122,26.5179981 C122,26.0748457 121.911429,25.5430627 121.557143,25.1885408 L118.368571,21.6433211 C117.748571,20.9342772 116.774286,20.8456467 115.977143,21.3774297 L60.7085714,62.7678689 C60.2657143,63.1223909 60,63.5655433 60,64.0973263 C60,64.6291092 60.1771429,65.1608922 60.62,65.5154141 L65.4028571,69.5924167 C65.7571429,69.8583082 66.1114286,70.0355692 66.5542857,70.0355692 C66.9085714,70.0355692 67.3514286,69.9469387 67.6171429,69.6810472 L121.291429,27.758825 C121.645714,27.404303 121.911429,26.9611506 122,26.5179981 Z M120.494286,26.6952591 L66.82,68.6174813 C66.6428571,68.7947423 66.3771429,68.7947423 66.2,68.6174813 L61.4171429,64.5404787 C61.24,64.3632178 61.24,64.2745873 61.24,64.1859568 C61.24,64.0973263 61.24,63.9200653 61.4171429,63.8314348 L116.685714,22.529626 C116.862857,22.3523651 117.217143,22.4409955 117.394286,22.6182565 L120.582857,26.1634762 C120.671429,26.2521067 120.76,26.4293676 120.671429,26.5179981 C120.671429,26.5179981 120.671429,26.6066286 120.494286,26.6952591 Z" id="Shape" fill="#010101" fill-rule="nonzero"></path>
                    <path d="M68,134.820021 L74.7596154,143.035569 L179,50.102707 L170.639423,43.0355692 L68.4447115,134.378325 L68,134.820021 Z M170.639423,44.7140144 L177.043269,50.102707 L74.8485577,141.268785 L69.6899038,134.9967 L170.639423,44.7140144 Z" id="Shape" fill="#010101" fill-rule="nonzero"></path>
                    <path d="M159.497126,33.291692 L159.497126,33.291692 L142.75,18.7815055 C141.681034,17.8022904 140.077586,17.8022904 138.91954,18.6924859 L74.0689655,72.1932352 C73.4454023,72.7273525 73,73.5285284 73,74.3297043 C73,75.1308803 73.2672414,75.9320562 73.8908046,76.5551931 L89.0344828,91.2434187 L91.3505747,94.0030248 L91.6178161,93.8249857 L98.1206897,100.145374 C98.6551724,100.679491 99.4568966,101.035569 100.16954,101.035569 C100.882184,101.035569 101.594828,100.768511 102.12931,100.234393 L165.020115,42.5497252 C165.643678,42.0156079 166,41.2144319 166,40.3242364 C166,39.5230605 165.643678,38.7218846 165.020115,38.1877673 L159.942529,33.8258093 L159.497126,33.291692 Z M74.7816092,75.6649976 C74.4252874,75.3089194 74.2471264,74.8638216 74.2471264,74.4187239 C74.2471264,73.9736261 74.5143678,73.5285284 74.8706897,73.1724502 L139.721264,19.671701 C139.988506,19.4046423 140.433908,19.3156228 140.79023,19.3156228 C141.146552,19.3156228 141.591954,19.4936619 141.859195,19.7607205 L145.867816,23.3215025 L77.8994253,78.6916623 L74.7816092,75.6649976 Z M78.7902299,79.5818578 L146.66954,24.3007175 L151.301724,28.9297341 L84.4022989,85.0120503 L78.7902299,79.5818578 Z M89.9252874,90.4422428 L85.7385057,85.6351871 L152.816092,29.3748319 L158.428161,34.2709071 L91.6178161,92.1336142 L89.9252874,90.4422428 Z M164.752874,40.413256 C164.752874,40.8583537 164.574713,41.3034515 164.218391,41.6595297 L101.327586,99.3441977 C100.704023,99.9673346 99.6350575,99.9673346 99.0114943,99.2551782 L92.5977011,93.0238097 L159.497126,35.072083 L164.218391,39.1669823 C164.485632,39.434041 164.752874,39.8791387 164.752874,40.413256 Z" id="Shape" fill="#010101" fill-rule="nonzero"></path>
                    <polygon id="Path-7" stroke="#000000" fill-rule="nonzero" points="76.6666667 98.0355692 45 125.842347 51.3333333 132.035569 83 104.331865"></polygon>
                </g>
                <g id="text" transform="translate(146.000000, 92.000000)">
                    <g id="Group-3">
                        <g id="serverless_logo_no_undertext" filter="url(#filter-1)" fill-rule="nonzero">
                            <g id="Group" transform="translate(0.000000, 1.288462)" fill="#322835">
                                <path d="M42.8358531,46.5134615 C45.0425486,46.5134615 46.600216,46.3846154 47.7684665,45.9980769 C48.9367171,45.6115385 49.4559395,45.0961538 49.4559395,44.0653846 C49.4559395,43.4211538 49.3261339,42.9057692 48.9367171,42.5192308 C48.5473002,42.1326923 48.0280778,41.7461538 47.3790497,41.3596154 C46.7300216,41.1019231 45.9511879,40.7153846 45.1723542,40.4576923 C44.3935205,40.2 43.4848812,39.9423077 42.5762419,39.5557692 C41.2781857,39.1692308 39.9801296,38.7826923 38.5522678,38.2673077 C37.2542117,37.7519231 35.9561555,37.1076923 34.9177106,36.3346154 C33.74946,35.5615385 32.8408207,34.6596154 32.1917927,33.3711538 C31.412959,32.2115385 31.1533477,30.7942308 31.1533477,28.9903846 C31.1533477,27.5730769 31.412959,26.1557692 31.9321814,24.9961538 C32.4514039,23.7076923 33.3600432,22.5480769 34.5282937,21.6461538 C35.6965443,20.6153846 37.2542117,19.8423077 39.0714903,19.3269231 C40.8887689,18.8115385 43.0954644,18.5538462 45.6915767,18.5538462 C47.8982721,18.5538462 49.975162,18.6826923 51.9222462,19.0692308 C53.8693305,19.4557692 55.4269978,19.8423077 56.8548596,20.4865385 L55.4269978,27.9596154 C54.6481641,27.7019231 53.350108,27.3153846 51.662635,26.8 C49.975162,26.2846154 48.0280778,26.0269231 45.8213823,26.0269231 C43.6146868,26.0269231 42.0570194,26.2846154 41.2781857,26.8 C40.4993521,27.3153846 40.1099352,27.9596154 40.1099352,28.6038462 C40.1099352,29.1192308 40.2397408,29.6346154 40.6291577,30.0211538 C41.0185745,30.4076923 41.4079914,30.7942308 42.0570194,31.1807692 C42.7060475,31.5673077 43.3550756,31.825 44.1339093,32.2115385 C44.912743,32.4692308 45.8213823,32.8557692 46.7300216,33.1134615 C48.0280778,33.5 49.3261339,34.0153846 50.7539957,34.5307692 C52.1818575,35.0461538 53.350108,35.6903846 54.5183585,36.4634615 C55.6866091,37.2365385 56.5952484,38.2673077 57.2442765,39.4269231 C57.8933045,40.5865385 58.2827214,42.1326923 58.2827214,43.9365385 C58.2827214,45.3538462 58.0231102,46.6423077 57.5038877,47.9307692 C56.9846652,49.2192308 56.0760259,50.25 54.9077754,51.1519231 C53.7395248,52.0538462 52.0520518,52.8269231 50.1049676,53.3423077 C48.1578834,53.8576923 45.6915767,54.1153846 42.8358531,54.1153846 C39.850324,54.1153846 37.3840173,53.7288462 35.3071274,53.0846154 C33.2302376,52.4403846 31.5427646,51.7961538 30.374514,51.2807692 L31.8023758,43.9365385 C33.4898488,44.5807692 35.3071274,45.225 37.124406,45.7403846 C38.9416847,46.1269231 40.8887689,46.5134615 42.8358531,46.5134615 Z" id="Path"></path>
                                <path d="M62.9557235,36.5923077 C62.9557235,33.6288462 63.474946,31.0519231 64.3835853,28.7326923 C65.2922246,26.5423077 66.4604752,24.6096154 68.0181425,23.0634615 C69.4460043,21.5173077 71.2632829,20.4865385 73.0805616,19.7134615 C75.0276458,18.9403846 76.97473,18.5538462 79.0516199,18.5538462 C84.1140389,18.5538462 87.8784017,19.9711538 90.474514,22.9346154 C93.0706263,25.8980769 94.3686825,30.15 94.3686825,35.8192308 C94.3686825,36.3346154 94.3686825,36.9788462 94.3686825,37.6230769 C94.3686825,38.2673077 94.3686825,38.7826923 94.2388769,39.1692308 L72.0421166,39.1692308 C72.0421166,41.3596154 72.9507559,43.0346154 74.7680346,44.3230769 C76.5853132,45.6115385 78.9218143,46.2557692 81.7775378,46.2557692 C83.5948164,46.2557692 85.2822894,46.1269231 86.8399568,45.7403846 C88.3976242,45.3538462 89.825486,44.9673077 90.8639309,44.5807692 L92.0321814,52.0538462 C90.474514,52.5692308 88.9168467,53.0846154 87.099568,53.3423077 C85.412095,53.7288462 83.4650108,53.8576923 81.2583153,53.8576923 C78.4025918,53.8576923 75.8064795,53.4711538 73.4699784,52.6980769 C71.1334773,51.925 69.1863931,50.8942308 67.6287257,49.3480769 C66.0710583,47.9307692 64.7730022,46.1269231 63.8643629,43.9365385 C63.3451404,42.0038462 62.9557235,39.4269231 62.9557235,36.5923077 Z M85.6717063,33.1134615 C85.6717063,32.2115385 85.5419006,31.3096154 85.2822894,30.5365385 C85.0226782,29.7634615 84.6332613,28.9903846 84.1140389,28.3461538 C83.5948164,27.7019231 82.9457883,27.1865385 82.037149,26.6711538 C81.2583153,26.2846154 80.2198704,26.0269231 79.0516199,26.0269231 C77.8833693,26.0269231 76.8449244,26.1557692 76.0660907,26.5423077 C75.287257,26.9288462 74.5084233,27.4442308 73.9892009,28.0884615 C73.4699784,28.7326923 72.9507559,29.5057692 72.6911447,30.4076923 C72.4315335,31.3096154 72.1719222,32.2115385 72.0421166,33.1134615 L85.6717063,33.1134615 Z" id="Shape"></path>
                                <path d="M126.300864,28.475 C125.781641,28.3461538 125.002808,28.2173077 124.223974,28.0884615 C123.44514,27.9596154 122.666307,27.8307692 121.757667,27.7019231 C120.978834,27.5730769 120.2,27.4442308 119.421166,27.4442308 C118.642333,27.4442308 117.993305,27.3153846 117.474082,27.3153846 C116.176026,27.3153846 115.007775,27.3153846 113.839525,27.4442308 C112.671274,27.5730769 111.373218,27.8307692 110.204968,28.0884615 L110.204968,53.0846154 L101.24838,53.0846154 L101.24838,21.6461538 C103.584881,20.7442308 106.051188,20.1 108.517495,19.5846154 C110.983801,19.0692308 113.839525,18.8115385 117.214471,18.8115385 C117.733693,18.8115385 118.382721,18.8115385 119.291361,18.9403846 C120.2,18.9403846 121.108639,19.0692308 122.147084,19.1980769 C123.185529,19.3269231 124.223974,19.4557692 125.262419,19.5846154 C126.300864,19.7134615 127.209503,19.9711538 127.988337,20.2288462 L126.300864,28.475 Z" id="Path"></path>
                                <path d="M144.47365,53.0846154 C142.266955,48.8326923 140.060259,43.8076923 137.853564,38.1384615 C135.646868,32.4692308 133.440173,26.1557692 131.493089,19.4557692 L140.839093,19.4557692 C141.22851,21.2596154 141.747732,23.1923077 142.39676,25.2538462 C143.045788,27.3153846 143.694816,29.3769231 144.343844,31.4384615 C144.992873,33.5 145.641901,35.5615385 146.420734,37.4942308 C147.069762,39.4269231 147.71879,41.2307692 148.367819,42.9057692 C149.016847,41.2307692 149.665875,39.5557692 150.444708,37.4942308 C151.223542,35.5615385 152.002376,33.5 152.78121,31.4384615 C153.560043,29.3769231 154.209071,27.3153846 154.987905,25.2538462 C155.636933,23.1923077 156.285961,21.2596154 156.675378,19.4557692 L165.631965,19.4557692 C163.555076,26.2846154 161.34838,32.4692308 158.882073,38.1384615 C156.415767,43.8076923 154.079266,48.8326923 152.002376,53.0846154 L144.47365,53.0846154 Z" id="Path"></path>
                                <path d="M166.800216,36.5923077 C166.800216,33.6288462 167.319438,31.0519231 168.228078,28.7326923 C169.136717,26.5423077 170.304968,24.6096154 171.862635,23.0634615 C173.290497,21.5173077 175.107775,20.4865385 176.925054,19.7134615 C178.872138,18.9403846 180.819222,18.5538462 182.896112,18.5538462 C187.958531,18.5538462 191.722894,19.9711538 194.319006,22.9346154 C196.915119,25.8980769 198.213175,30.15 198.213175,35.8192308 C198.213175,36.3346154 198.213175,36.9788462 198.213175,37.6230769 C198.213175,38.2673077 198.213175,38.7826923 198.083369,39.1692308 L176.14622,39.1692308 C176.14622,41.3596154 177.05486,43.0346154 178.872138,44.3230769 C180.689417,45.6115385 183.025918,46.2557692 185.881641,46.2557692 C187.69892,46.2557692 189.386393,46.1269231 190.94406,45.7403846 C192.501728,45.3538462 193.92959,44.9673077 194.968035,44.5807692 L196.136285,52.0538462 C194.578618,52.5692308 193.02095,53.0846154 191.203672,53.3423077 C189.386393,53.6 187.569114,53.8576923 185.362419,53.8576923 C182.506695,53.8576923 179.910583,53.4711538 177.574082,52.6980769 C175.237581,51.925 173.290497,50.8942308 171.732829,49.3480769 C170.175162,47.9307692 168.877106,46.1269231 167.968467,43.9365385 C167.319438,42.0038462 166.800216,39.4269231 166.800216,36.5923077 Z M189.516199,33.1134615 C189.516199,32.2115385 189.386393,31.3096154 189.126782,30.5365385 C188.867171,29.7634615 188.477754,28.9903846 187.958531,28.3461538 C187.439309,27.7019231 186.790281,27.1865385 185.881641,26.6711538 C185.102808,26.2846154 184.064363,26.0269231 182.896112,26.0269231 C181.727862,26.0269231 180.689417,26.1557692 179.910583,26.5423077 C179.131749,26.9288462 178.352916,27.4442308 177.833693,28.0884615 C177.314471,28.7326923 176.795248,29.5057692 176.535637,30.4076923 C176.276026,31.3096154 176.016415,32.2115385 175.886609,33.1134615 L189.516199,33.1134615 Z" id="Shape"></path>
                                <path d="M230.145356,28.475 C229.626134,28.3461538 228.8473,28.2173077 228.068467,28.0884615 C227.289633,27.9596154 226.510799,27.8307692 225.60216,27.7019231 C224.823326,27.5730769 224.044492,27.4442308 223.265659,27.4442308 C222.486825,27.4442308 221.837797,27.3153846 221.318575,27.3153846 C220.020518,27.3153846 218.852268,27.3153846 217.684017,27.4442308 C216.515767,27.5730769 215.217711,27.8307692 214.04946,28.0884615 L214.04946,53.0846154 L205.092873,53.0846154 L205.092873,21.6461538 C207.429374,20.7442308 209.89568,20.1 212.361987,19.5846154 C214.828294,19.0692308 217.684017,18.8115385 221.058963,18.8115385 C221.578186,18.8115385 222.227214,18.8115385 223.135853,18.9403846 C224.044492,18.9403846 224.953132,19.0692308 225.991577,19.1980769 C227.030022,19.3269231 228.068467,19.4557692 229.106911,19.5846154 C230.145356,19.7134615 231.053996,19.9711538 231.832829,20.2288462 L230.145356,28.475 Z" id="Path"></path>
                                <path d="M262.466955,51.6673077 C262.337149,51.7961538 261.947732,51.925 261.42851,52.1826923 C260.909287,52.4403846 260.260259,52.6980769 259.481425,52.9557692 C258.702592,53.2134615 257.664147,53.4711538 256.495896,53.6 C255.327646,53.7288462 254.02959,53.8576923 252.471922,53.8576923 C248.447948,53.8576923 245.462419,52.6980769 243.515335,50.25 C241.698056,47.8019231 240.659611,44.3230769 240.659611,39.6846154 L240.659611,11.2096154 L231.313607,11.2096154 L231.313607,3.86538462 L249.616199,3.86538462 L249.616199,40.3288462 C249.616199,42.6480769 250.135421,44.1942308 251.04406,44.9673077 C251.9527,45.7403846 253.12095,46.1269231 254.548812,46.1269231 C256.366091,46.1269231 257.793952,45.8692308 258.962203,45.3538462 C260.130454,44.8384615 260.909287,44.5807692 261.298704,44.4519231 L262.466955,51.6673077 Z" id="Path"></path>
                                <path d="M265.192873,36.5923077 C265.192873,33.6288462 265.712095,31.0519231 266.620734,28.7326923 C267.529374,26.5423077 268.697624,24.6096154 270.255292,23.0634615 C271.683153,21.5173077 273.500432,20.4865385 275.317711,19.7134615 C277.264795,18.9403846 279.211879,18.5538462 281.288769,18.5538462 C286.351188,18.5538462 290.115551,19.9711538 292.711663,22.9346154 C295.307775,25.8980769 296.605832,30.15 296.605832,35.8192308 C296.605832,36.3346154 296.605832,36.9788462 296.605832,37.6230769 C296.605832,38.2673077 296.605832,38.7826923 296.476026,39.1692308 L274.538877,39.1692308 C274.538877,41.3596154 275.447516,43.0346154 277.264795,44.3230769 C279.082073,45.6115385 281.418575,46.2557692 284.274298,46.2557692 C286.091577,46.2557692 287.77905,46.1269231 289.336717,45.7403846 C290.894384,45.3538462 292.322246,44.9673077 293.360691,44.5807692 L294.528942,52.0538462 C292.971274,52.5692308 291.413607,53.0846154 289.596328,53.3423077 C287.77905,53.6 285.961771,53.8576923 283.755076,53.8576923 C280.899352,53.8576923 278.30324,53.4711538 275.966739,52.6980769 C273.630238,51.925 271.683153,50.8942308 270.125486,49.3480769 C268.567819,47.9307692 267.269762,46.1269231 266.361123,43.9365385 C265.582289,42.0038462 265.192873,39.4269231 265.192873,36.5923077 Z M287.908855,33.1134615 C287.908855,32.2115385 287.77905,31.3096154 287.519438,30.5365385 C287.259827,29.7634615 286.87041,28.9903846 286.351188,28.3461538 C285.831965,27.7019231 285.182937,27.1865385 284.274298,26.6711538 C283.495464,26.2846154 282.457019,26.0269231 281.288769,26.0269231 C280.120518,26.0269231 279.082073,26.1557692 278.30324,26.5423077 C277.524406,26.9288462 276.745572,27.4442308 276.22635,28.0884615 C275.707127,28.7326923 275.187905,29.5057692 274.928294,30.4076923 C274.668683,31.3096154 274.409071,32.2115385 274.279266,33.1134615 L287.908855,33.1134615 Z" id="Shape"></path>
                                <path d="M313.740173,46.5134615 C315.946868,46.5134615 317.504536,46.3846154 318.672786,45.9980769 C319.841037,45.6115385 320.360259,45.0961538 320.360259,44.0653846 C320.360259,43.4211538 320.230454,42.9057692 319.841037,42.5192308 C319.45162,42.1326923 318.932397,41.7461538 318.283369,41.3596154 C317.634341,41.1019231 316.855508,40.7153846 316.076674,40.4576923 C315.29784,40.2 314.389201,39.9423077 313.480562,39.5557692 C312.182505,39.1692308 310.884449,38.7826923 309.456587,38.2673077 C308.158531,37.7519231 306.860475,37.1076923 305.82203,36.3346154 C304.65378,35.5615385 303.74514,34.6596154 303.096112,33.3711538 C302.317279,32.2115385 302.057667,30.7942308 302.057667,28.9903846 C302.057667,27.5730769 302.317279,26.1557692 302.836501,24.9961538 C303.355724,23.7076923 304.264363,22.5480769 305.432613,21.6461538 C306.600864,20.6153846 308.158531,19.8423077 309.97581,19.3269231 C311.793089,18.8115385 313.999784,18.5538462 316.595896,18.5538462 C318.802592,18.5538462 320.879482,18.6826923 322.826566,19.0692308 C324.77365,19.4557692 326.331317,19.8423077 327.759179,20.4865385 L326.331317,27.9596154 C325.552484,27.7019231 324.254428,27.3153846 322.566955,26.8 C320.879482,26.2846154 318.932397,26.0269231 316.725702,26.0269231 C314.519006,26.0269231 312.961339,26.2846154 312.182505,26.8 C311.403672,27.3153846 311.014255,27.9596154 311.014255,28.6038462 C311.014255,29.1192308 311.14406,29.6346154 311.533477,30.0211538 C311.922894,30.4076923 312.312311,30.7942308 312.961339,31.1807692 C313.610367,31.5673077 314.259395,31.825 315.038229,32.2115385 C315.817063,32.4692308 316.725702,32.8557692 317.634341,33.1134615 C318.932397,33.5 320.230454,34.0153846 321.658315,34.5307692 C323.086177,35.0461538 324.254428,35.6903846 325.422678,36.4634615 C326.590929,37.2365385 327.499568,38.2673077 328.148596,39.4269231 C328.797624,40.5865385 329.187041,42.1326923 329.187041,43.9365385 C329.187041,45.3538462 328.92743,46.6423077 328.408207,47.9307692 C327.888985,49.2192308 326.980346,50.25 325.812095,51.1519231 C324.643844,52.0538462 322.956371,52.8269231 321.009287,53.3423077 C319.062203,53.8576923 316.595896,54.1153846 313.740173,54.1153846 C310.754644,54.1153846 308.288337,53.7288462 306.211447,53.0846154 C304.134557,52.4403846 302.447084,51.7961538 301.278834,51.2807692 L302.706695,43.9365385 C304.394168,44.5807692 306.211447,45.225 308.028726,45.7403846 C309.846004,46.1269231 311.793089,46.5134615 313.740173,46.5134615 Z" id="Path"></path>
                                <path d="M346.840605,46.5134615 C349.0473,46.5134615 350.604968,46.3846154 351.773218,45.9980769 C352.941469,45.6115385 353.460691,45.0961538 353.460691,44.0653846 C353.460691,43.4211538 353.330886,42.9057692 352.941469,42.5192308 C352.552052,42.1326923 352.032829,41.7461538 351.383801,41.3596154 C350.734773,41.1019231 349.95594,40.7153846 349.177106,40.4576923 C348.398272,40.2 347.489633,39.9423077 346.580994,39.5557692 C345.282937,39.1692308 343.984881,38.7826923 342.557019,38.2673077 C341.258963,37.7519231 339.960907,37.1076923 338.922462,36.3346154 C337.754212,35.5615385 336.845572,34.6596154 336.196544,33.3711538 C335.417711,32.2115385 335.158099,30.7942308 335.158099,28.9903846 C335.158099,27.5730769 335.417711,26.1557692 335.936933,24.9961538 C336.456156,23.7076923 337.364795,22.5480769 338.533045,21.6461538 C339.701296,20.6153846 341.258963,19.8423077 343.076242,19.3269231 C344.893521,18.8115385 347.100216,18.5538462 349.696328,18.5538462 C351.903024,18.5538462 353.979914,18.6826923 355.926998,19.0692308 C357.874082,19.4557692 359.431749,19.8423077 360.859611,20.4865385 L359.431749,27.9596154 C358.652916,27.7019231 357.35486,27.3153846 355.667387,26.8 C353.979914,26.2846154 352.032829,26.0269231 349.826134,26.0269231 C347.619438,26.0269231 346.061771,26.2846154 345.282937,26.8 C344.504104,27.3153846 344.114687,27.9596154 344.114687,28.6038462 C344.114687,29.1192308 344.244492,29.6346154 344.633909,30.0211538 C345.023326,30.4076923 345.412743,30.7942308 346.061771,31.1807692 C346.710799,31.5673077 347.359827,31.825 348.138661,32.2115385 C348.917495,32.4692308 349.826134,32.8557692 350.734773,33.1134615 C352.032829,33.5 353.330886,34.0153846 354.758747,34.5307692 C356.186609,35.0461538 357.35486,35.6903846 358.52311,36.4634615 C359.691361,37.2365385 360.6,38.2673077 361.249028,39.4269231 C361.898056,40.5865385 362.287473,42.1326923 362.287473,43.9365385 C362.287473,45.3538462 362.027862,46.6423077 361.508639,47.9307692 C360.989417,49.2192308 360.080778,50.25 358.912527,51.1519231 C357.744276,52.0538462 356.056803,52.8269231 354.109719,53.3423077 C352.162635,53.8576923 349.696328,54.1153846 346.840605,54.1153846 C343.855076,54.1153846 341.388769,53.7288462 339.311879,53.0846154 C337.234989,52.4403846 335.547516,51.7961538 334.379266,51.2807692 L335.807127,43.9365385 C337.4946,44.5807692 339.311879,45.225 341.129158,45.7403846 C342.946436,46.1269231 344.893521,46.5134615 346.840605,46.5134615 Z" id="Path"></path>
                                <polygon id="Path" points="374.359395 61.975 365.143197 61.975 385.392873 0.128846154 394.479266 0.128846154"></polygon>
                                <polygon id="Path" points="9.86522678 61.975 0.649028078 61.975 20.8987041 0.128846154 29.9850972 0.128846154"></polygon>
                            </g>
                            <polygon id="Path" fill="#322835" points="581.788769 63.7788462 388 64 408.368467 0.515384615 601 2"></polygon>
                            <g id="Group" transform="translate(424.464363, 11.596154)" fill="#0BB9A7">
                                <path d="M0.129805616,1.41730769 L15.7064795,1.41730769 C28.1678186,1.41730769 36.7349892,9.27692308 36.7349892,21.1307692 C36.7349892,32.9846154 28.1678186,40.7153846 15.7064795,40.7153846 L0.129805616,40.7153846 L0.129805616,1.41730769 Z M15.7064795,33.3711538 C23.4948164,33.3711538 28.1678186,27.8307692 28.1678186,21.1307692 C28.1678186,14.1730769 23.8842333,8.76153846 15.7064795,8.76153846 L8.56717063,8.76153846 L8.56717063,33.3711538 L15.7064795,33.3711538 Z" id="Shape"></path>
                                <path d="M66.0710583,33.8865385 L48.4174946,33.8865385 L45.9511879,40.7153846 L36.7349892,40.7153846 L51.9222462,1.41730769 L62.4365011,1.41730769 L77.7535637,40.7153846 L68.537365,40.7153846 L66.0710583,33.8865385 Z M50.6241901,26.6711538 L63.7345572,26.6711538 L57.2442765,8.63269231 L50.6241901,26.6711538 Z" id="Shape"></path>
                                <polygon id="Path" points="87.7485961 24.6096154 72.4315335 1.41730769 82.037149 1.41730769 91.9023758 17.2653846 101.637797 1.41730769 111.243413 1.41730769 96.0561555 24.6096154 96.0561555 40.7153846 87.6187905 40.7153846 87.6187905 24.6096154"></polygon>
                                <path d="M115.267387,28.8615385 C117.993305,31.6961538 122.406695,34.1442308 127.858531,34.1442308 C132.531533,34.1442308 134.738229,31.9538462 134.738229,29.7634615 C134.738229,26.8 131.233477,25.7692308 126.690281,24.7384615 C120.2,23.3211538 111.892441,21.5173077 111.892441,12.7557692 C111.892441,6.18461538 117.603888,0.901923077 126.949892,0.901923077 C133.180562,0.901923077 138.502592,2.83461538 142.39676,6.44230769 L137.723758,12.6269231 C134.478618,9.66346154 130.195032,8.375 126.43067,8.375 C122.666307,8.375 120.589417,10.05 120.589417,12.3692308 C120.589417,15.075 123.964363,15.8480769 128.507559,16.8788462 C134.99784,18.2961538 143.3054,20.3576923 143.3054,28.9903846 C143.3054,36.2057692 138.113175,41.6173077 127.469114,41.6173077 C119.810583,41.6173077 114.358747,39.0403846 110.594384,35.4326923 L115.267387,28.8615385 Z" id="Path"></path>
                            </g>
                            <path d="M352.681857,65.8403846 L337.884017,65.8403846 C336.715767,65.8403846 335.807127,64.9384615 335.807127,63.7788462 C335.807127,62.6192308 336.715767,61.7173077 337.884017,61.7173077 L352.681857,61.7173077 C353.850108,61.7173077 354.758747,62.6192308 354.758747,63.7788462 C354.758747,64.9384615 353.979914,65.8403846 352.681857,65.8403846 Z M325.163067,65.8403846 L310.365227,65.8403846 C309.196976,65.8403846 308.288337,64.9384615 308.288337,63.7788462 C308.288337,62.6192308 309.196976,61.7173077 310.365227,61.7173077 L325.163067,61.7173077 C326.331317,61.7173077 327.239957,62.6192308 327.239957,63.7788462 C327.239957,64.9384615 326.331317,65.8403846 325.163067,65.8403846 Z M297.644276,65.8403846 L282.846436,65.8403846 C281.678186,65.8403846 280.769546,64.9384615 280.769546,63.7788462 C280.769546,62.6192308 281.678186,61.7173077 282.846436,61.7173077 L297.644276,61.7173077 C298.812527,61.7173077 299.721166,62.6192308 299.721166,63.7788462 C299.721166,64.9384615 298.812527,65.8403846 297.644276,65.8403846 Z M269.99568,65.8403846 L255.19784,65.8403846 C254.02959,65.8403846 253.12095,64.9384615 253.12095,63.7788462 C253.12095,62.6192308 254.02959,61.7173077 255.19784,61.7173077 L269.99568,61.7173077 C271.163931,61.7173077 272.07257,62.6192308 272.07257,63.7788462 C272.07257,64.9384615 271.163931,65.8403846 269.99568,65.8403846 Z M242.47689,65.8403846 L227.67905,65.8403846 C226.510799,65.8403846 225.60216,64.9384615 225.60216,63.7788462 C225.60216,62.6192308 226.510799,61.7173077 227.67905,61.7173077 L242.47689,61.7173077 C243.64514,61.7173077 244.55378,62.6192308 244.55378,63.7788462 C244.55378,64.9384615 243.64514,65.8403846 242.47689,65.8403846 Z M214.828294,65.8403846 L200.030454,65.8403846 C198.862203,65.8403846 197.953564,64.9384615 197.953564,63.7788462 C197.953564,62.6192308 198.862203,61.7173077 200.030454,61.7173077 L214.828294,61.7173077 C215.996544,61.7173077 216.905184,62.6192308 216.905184,63.7788462 C216.905184,64.9384615 215.996544,65.8403846 214.828294,65.8403846 Z M187.309503,65.8403846 L172.511663,65.8403846 C171.343413,65.8403846 170.434773,64.9384615 170.434773,63.7788462 C170.434773,62.6192308 171.343413,61.7173077 172.511663,61.7173077 L187.309503,61.7173077 C188.477754,61.7173077 189.386393,62.6192308 189.386393,63.7788462 C189.386393,64.9384615 188.477754,65.8403846 187.309503,65.8403846 Z M159.660907,65.8403846 L144.863067,65.8403846 C143.694816,65.8403846 142.786177,64.9384615 142.786177,63.7788462 C142.786177,62.6192308 143.694816,61.7173077 144.863067,61.7173077 L159.660907,61.7173077 C160.829158,61.7173077 161.737797,62.6192308 161.737797,63.7788462 C161.737797,64.9384615 160.829158,65.8403846 159.660907,65.8403846 Z M132.142117,65.8403846 L117.344276,65.8403846 C116.176026,65.8403846 115.267387,64.9384615 115.267387,63.7788462 C115.267387,62.6192308 116.176026,61.7173077 117.344276,61.7173077 L132.142117,61.7173077 C133.310367,61.7173077 134.219006,62.6192308 134.219006,63.7788462 C134.219006,64.9384615 133.310367,65.8403846 132.142117,65.8403846 Z M104.623326,65.8403846 L89.6956803,65.8403846 C88.5274298,65.8403846 87.6187905,64.9384615 87.6187905,63.7788462 C87.6187905,62.6192308 88.5274298,61.7173077 89.6956803,61.7173077 L104.493521,61.7173077 C105.661771,61.7173077 106.57041,62.6192308 106.57041,63.7788462 C106.57041,64.9384615 105.791577,65.8403846 104.623326,65.8403846 Z M76.97473,65.8403846 L62.1768898,65.8403846 C61.0086393,65.8403846 60.1,64.9384615 60.1,63.7788462 C60.1,62.6192308 61.0086393,61.7173077 62.1768898,61.7173077 L76.97473,61.7173077 C78.1429806,61.7173077 79.0516199,62.6192308 79.0516199,63.7788462 C79.0516199,64.9384615 78.1429806,65.8403846 76.97473,65.8403846 Z M49.4559395,65.8403846 L34.5282937,65.8403846 C33.3600432,65.8403846 32.4514039,64.9384615 32.4514039,63.7788462 C32.4514039,62.6192308 33.3600432,61.7173077 34.5282937,61.7173077 L49.3261339,61.7173077 C50.4943844,61.7173077 51.4030238,62.6192308 51.4030238,63.7788462 C51.4030238,64.9384615 50.6241901,65.8403846 49.4559395,65.8403846 Z" id="Shape" fill="#0BB9A7"></path>
                        </g>
                        <g id="virtual" fill="#FFFFFF" fill-opacity="1">
                            <use filter="url(#filter-3)" xlink:href="#text-2"></use>
                            <use xlink:href="#text-2"></use>
                        </g>
                    </g>
                </g>
                <g id="headphone" transform="translate(714.500000, 137.000000) scale(-1, 1) translate(-714.500000, -137.000000) translate(665.000000, 62.000000)">
                    <path d="M23.1546513,121.409523 C11.4355741,116.447681 1.51943189,76.3712649 1.00430761,65.4297673 C0.48918334,54.4882696 46.3352436,44.5645857 52.2591727,49.1447475 C58.1831019,53.7249093 82.2651616,101.307701 75.9548893,109.959118 C69.6446169,118.483308 35.3888528,126.498591 23.1546513,121.409523 Z" id="Path" fill="#F58862" fill-rule="nonzero"></path>
                    <path d="M8.71254343,60 C8.71254343,60 0.282924681,50.9012714 1.04925366,35.3949874 C1.81558264,19.8887034 8.71254343,7.71434821 31.3192483,1.43494395 C48.8170933,-3.43479813 60.1843064,5.02317495 67.0812672,12.8403925 C73.978228,20.65761 75,31.5504542 75,31.5504542 L49.5834222,31.5504542 C49.5834222,31.5504542 47.4121568,29.3718853 45.2408914,24.3739922 C42.5587399,17.9664368 37.0667156,19.5042501 37.0667156,19.5042501 L42.5587399,46.9285871 L8.71254343,60 Z" id="Path" fill="#F58862" fill-rule="nonzero"></path>
                    <path d="M50.2764228,123.128796 C50.2764228,123.128796 53.9186992,128.924603 59.5121951,132.530884 C65.1056911,136.137164 72,134.849207 72,134.849207 L68.7479675,143.993703 C68.7479675,143.993703 56.2601626,144.38009 50.1463415,139.099466 C43.902439,133.818841 40,123 40,123 L50.2764228,123 L50.2764228,123.128796 Z" id="Path" fill="#F58862" fill-rule="nonzero"></path>
                    <path d="M22.4944216,99.8706128 C39.5821392,116.781045 59,93.3370369 59,93.3370369 C59,93.3370369 45.4074974,106.660407 28.8375895,93.2089276 C15.7628965,82.5758531 28.3197799,64 28.3197799,64 C28.3197799,64 7.34849016,84.881821 22.4944216,99.8706128 Z" id="Path" fill="#55285B" fill-rule="nonzero" opacity="0.4"></path>
                    <path d="M92.6619718,150 L78.3380282,150 C74.7887324,150 72,147.104895 72,143.706294 L72,138.293706 C72,134.769231 74.915493,132 78.3380282,132 L92.6619718,132 C96.2112676,132 99,134.895105 99,138.293706 L99,143.706294 C99,147.104895 96.084507,150 92.6619718,150 Z" id="Path" stroke="#0B0B0B" stroke-width="2" fill="#433643" fill-rule="nonzero"></path>
                    <path d="M15.346889,111.294569 C21.7183963,131.869292 38.2843153,121.58193 35.7357124,120.29601 C33.1871095,119.01009 26.1716484,118.385922 21.7183963,111.294569 C13.0522912,97.4946727 6.42677879,75.678171 6.42677879,71.4310424 C6.42677879,56.9359069 19.1697934,56 11.5239846,56 C6.89794897,56 -0.670638658,59.9333477 1.32957294,74.0028828 C2.63526656,83.1871621 11.8771089,100.090035 15.346889,111.294569 Z" id="Path" fill="#55285B" fill-rule="nonzero" opacity="0.4"></path>
                    <path d="M51.531594,32 C46.3803506,26.0240397 42.0876478,21.7554966 38.6534855,19.1943708 C33.5022422,15.352682 41.2291072,-1.294636 50.2437831,1.26648985 C59.258459,3.82761569 63.1218916,6.38874154 66.9853241,10.2304303 C69.5609458,12.7915562 72.5658377,20.0480794 76,32 L51.531594,32 Z" id="Path-9" stroke="#000000" stroke-width="2" fill-opacity="0.436817089" fill="#4A4A4A"></path>
                    <path d="M42.1977768,47.1924816 C16.618723,52.3304519 2.976561,57.8965865 1.27129075,63.8908852 C-1.28661462,72.8823332 15.0126273,112.044483 17.8976757,117.839573 C20.7827241,123.634664 25.5713918,122.977544 30.6872026,122.977544 C35.8030133,122.977544 66.1042321,115.756441 70.3347359,113.986096 C74.5652397,112.21575 78.008452,108.848125 76.7294994,103.710155 C75.4505467,98.5721848 56.7195779,55.9743998 53.708351,51.0459594 C51.7008664,47.7603324 47.8640083,46.4758398 42.1977768,47.1924816 Z" id="Path-10" stroke="#000000" stroke-width="2"></path>
                    <path d="M46,1 C35.672404,1 27.926707,2.27906977 22.762909,4.8372093 C14.4991929,8.93104464 3.39866643,16.3488372 0.816767425,27.8604651 C-1.35243377,37.5320429 0.79914873,46.9118879 7.27151494,56 L43.418101,47.0465116 C38.254303,30.8449612 35.672404,20.6124031 35.672404,16.3488372 C35.672404,12.0852713 39.114936,6.96899225 46,1 Z" id="Path-11" stroke="#000000" stroke-width="2"></path>
                    <path d="" id="Path-12" stroke="#979797"></path>
                    <path d="M39,106 C27.4098361,106 18,96.5901639 18,85 C18,73.4098361 27.4098361,64 39,64 C50.5901639,64 60,73.4098361 60,85 C60,96.5901639 50.704918,106 39,106 Z" id="Path" stroke="#010101" stroke-width="2"></path>
                    <path d="M39,122.294118 C41.4738581,129.585621 44.8871914,134.762091 49.24,137.823529 C53.5928086,140.884968 59.9928086,142.610458 68.44,143 L71,133.941176 C65.0266667,133.941176 61.1866667,133.509804 59.48,132.647059 C57.7733333,131.784314 54.36,127.901961 49.24,121 L39,122.294118 Z" id="Path-13" stroke="#030303" stroke-width="2"></path>
                </g>
                <polygon id="Path" fill="#322835" fill-rule="nonzero" points="170 112 161 112 168.249676 90 177.336069 90"></polygon>
            </g>
        </g>
    </g>
</svg>